<svg width="57" height="45" viewBox="0 0 57 45" fill="none" xmlns="http://www.w3.org/2000/svg">
<path fill-rule="evenodd" clip-rule="evenodd" d="M21.7318 4.12654C21.6981 4.17242 21.6666 4.22918 21.6433 4.2946C21.6373 4.31159 21.631 4.32853 21.6244 4.3454L19.8779 8.83201C19.5534 9.66553 18.6468 10.2273 17.6261 10.2273H7.125C5.81333 10.2273 4.75 11.1431 4.75 12.2727V38.8636C4.75 39.9933 5.81331 40.9091 7.125 40.9091H49.875C51.1867 40.9091 52.25 39.9933 52.25 38.8636V12.2727C52.25 11.143 51.1867 10.2273 49.875 10.2273H38.7861C37.7651 10.2273 36.8586 9.66535 36.5342 8.83164L34.7888 4.34502C34.7823 4.32828 34.7759 4.31147 34.77 4.2946C34.7467 4.22918 34.7151 4.17242 34.6814 4.12654C34.6717 4.11318 34.6622 4.10132 34.6531 4.09091H21.7602C21.7512 4.10132 21.7416 4.11318 21.7318 4.12654ZM17.1125 3.06636C17.659 1.56829 19.2509 0 21.5268 0H34.8866C37.1626 0 38.7545 1.56843 39.301 3.06659L40.4952 6.13636H49.875C53.8101 6.13636 57 8.88372 57 12.2727V38.8636C57 42.2528 53.8101 45 49.875 45H7.125C3.18998 45 0 42.2528 0 38.8636V12.2727C0 8.88372 3.18998 6.13636 7.125 6.13636H15.9174L17.1125 3.06636ZM16.625 24.5455C16.625 18.8971 21.9416 14.3182 28.5 14.3182C35.0583 14.3182 40.375 18.8971 40.375 24.5455C40.375 30.1938 35.0583 34.7727 28.5 34.7727C21.9416 34.7727 16.625 30.1938 16.625 24.5455ZM28.5 18.4091C24.5649 18.4091 21.375 21.1563 21.375 24.5455C21.375 27.9346 24.5649 30.6818 28.5 30.6818C32.4351 30.6818 35.625 27.9346 35.625 24.5455C35.625 21.1563 32.4351 18.4091 28.5 18.4091Z" fill="#868585"/>
</svg>
