<svg width="15" height="15" viewBox="0 0 15 15" fill="none" xmlns="http://www.w3.org/2000/svg">
<path d="M7.16575 0.00347314C6.82564 0.028098 6.72596 0.0374789 6.54183 0.0621037C4.50821 0.33415 2.68335 1.40005 1.48124 3.02177C0.805708 3.93172 0.32369 5.04453 0.117279 6.16789C0.0316654 6.63576 0 6.99341 0 7.50115C0 7.92564 0.0105551 8.09332 0.0598124 8.45917C0.279124 10.1079 1.03206 11.6428 2.18726 12.799C3.35418 13.9669 4.88468 14.7197 6.54183 14.9402C6.90774 14.9894 7.07545 15 7.5 15C7.92455 15 8.09226 14.9894 8.45817 14.9402C10.4894 14.6693 12.3167 13.6011 13.5188 11.9805C14.1943 11.0706 14.6763 9.95777 14.8827 8.83441C14.9683 8.36654 15 8.00889 15 7.50115C15 7.07666 14.9894 6.90898 14.9402 6.54313C14.7209 4.89444 13.9679 3.35949 12.8127 2.20329C11.5708 0.960324 9.9312 0.194609 8.14504 0.0257528C7.9656 0.00816359 7.30297 -0.00708036 7.16575 0.00347314ZM7.97498 1.60292C8.73729 1.67327 9.414 1.86089 10.0872 2.18805C10.7193 2.49527 11.1908 2.83064 11.6822 3.32079C12.1536 3.79101 12.4832 4.2495 12.7881 4.86277C13.208 5.70823 13.4156 6.57831 13.4156 7.50115C13.4156 8.01006 13.364 8.42517 13.2385 8.92587C13.0907 9.51687 12.8339 10.1231 12.5102 10.6437C12.4398 10.7575 12.258 11.0213 12.2041 11.0893L12.1806 11.1187L8.03362 6.97348C5.75371 4.69392 3.8878 2.82478 3.8878 2.82009C3.8878 2.80953 4.16693 2.61136 4.31001 2.52107C4.84832 2.18101 5.47224 1.91366 6.07506 1.76356C6.47029 1.66506 6.80688 1.61464 7.25958 1.5865C7.37334 1.57946 7.83542 1.59002 7.97498 1.60292ZM6.96873 8.03117C9.24746 10.3096 11.1122 12.1775 11.1122 12.1822C11.1122 12.1928 10.8331 12.3909 10.69 12.4812C10.0414 12.8905 9.28499 13.1871 8.54965 13.322C7.94918 13.431 7.35457 13.4475 6.74941 13.3689C5.87099 13.2563 4.96677 12.9163 4.21267 12.4167C3.8749 12.1939 3.62627 11.9899 3.31783 11.6815C2.84636 11.2113 2.51681 10.7528 2.21188 10.1395C1.79203 9.29407 1.58444 8.424 1.58444 7.50115C1.58444 6.99224 1.63604 6.57713 1.76153 6.07643C1.92572 5.41977 2.22596 4.74317 2.6036 4.18383C2.70797 4.02788 2.81001 3.88951 2.81939 3.88951C2.82291 3.88951 4.69116 5.75396 6.96873 8.03117Z" fill="#979494"/>
</svg>
