<svg width="40" height="40" viewBox="0 0 40 40" fill="none" xmlns="http://www.w3.org/2000/svg">
<path fill-rule="evenodd" clip-rule="evenodd" d="M34.824 23.6259C32.2347 22.7435 29.5467 22.1247 26.8133 21.7247H26.6907C29.8907 19.8212 32 16.593 32 12.9412V12.4235C31.3334 12.8 30.48 13.2941 29.2827 13.6259C28.9067 17.8377 24.88 21.1765 20 21.1765C15.2827 21.1765 11.36 18.0729 10.7733 14.0471C10.6934 13.6941 10.6667 13.32 10.6667 12.9412V11.6706C10.6987 11.6683 10.72 11.6612 10.752 11.6565C11 11.6188 11.2213 11.5694 11.4453 11.5177C11.6373 11.4753 11.8267 11.4306 11.9974 11.3788C12.184 11.3224 12.3627 11.2659 12.5307 11.2C12.7227 11.1271 12.8987 11.0518 13.0747 10.9718C13.1947 10.913 13.32 10.8612 13.432 10.8024C13.5965 10.7164 13.7592 10.6277 13.92 10.5365C14 10.4894 14.0933 10.4424 14.168 10.4C14.2827 10.3341 14.3947 10.2753 14.5067 10.2141C15.32 9.76471 16.096 9.41413 17.5414 9.41177H17.5467C18.8027 9.41177 19.552 9.66354 20.2533 10.0165C20.4853 10.1341 20.7147 10.2659 20.9574 10.4024C21.7867 10.8777 22.704 11.393 24.1147 11.6306C24.1307 11.633 24.1414 11.64 24.1573 11.6424C24.6374 11.72 25.176 11.7647 25.7867 11.7647C25.7974 11.7647 25.8053 11.7624 25.816 11.7624C28.256 11.7577 29.528 11.0377 30.6454 10.4L31.9627 9.68235V9.68002L31.976 9.6706L31.8827 9.2259L31.8267 8.90354C31.7014 8.1859 31.4667 7.49883 31.184 6.8306C30.6 5.44002 29.7067 4.16471 28.48 3.08471C27.8427 2.51767 27.12 2.02354 26.3733 1.62354C24.48 0.567083 22.2667 0 20 0C14.8 0 10.3467 2.94119 8.69335 7.05883C8.24002 8.16471 8.00001 9.34119 8.00001 10.5883V12.9412C8.00001 13.3412 8.02669 13.7412 8.0827 14.1176C8.48002 17.2918 10.488 20.0165 13.3414 21.713H13.2213C10.5813 22.0965 7.97869 22.6918 5.46668 23.5294C2.14667 24.64 0 27.3506 0 30.44V34.7741L0.632022 35.1176C4.69868 37.3459 11.3627 40 20 40C24.768 40 32 39.1553 39.3707 35.1176L40 34.7741V30.44C40 27.4212 37.92 24.6847 34.824 23.6259Z" fill="#868585"/>
</svg>
