<svg width="32" height="32" viewBox="0 0 32 32" fill="none" xmlns="http://www.w3.org/2000/svg">
<path d="M3.42857 6.85894H1.14286C0.839753 6.85894 0.549062 6.73854 0.334735 6.52423C0.120408 6.30992 0 6.01925 0 5.71616C0 5.41308 0.120408 5.12241 0.334735 4.9081C0.549062 4.69379 0.839753 4.57339 1.14286 4.57339H10.2857V1.14278C10.2857 0.839693 10.4061 0.549023 10.6205 0.334711C10.8348 0.120399 11.1255 0 11.4286 0H20.5714C20.8745 0 21.1652 0.120399 21.3796 0.334711C21.5939 0.549023 21.7143 0.839693 21.7143 1.14278V4.57339H30.8571C31.1602 4.57339 31.4509 4.69379 31.6653 4.9081C31.8796 5.12241 32 5.41308 32 5.71616C32 6.01925 31.8796 6.30992 31.6653 6.52423C31.4509 6.73854 31.1602 6.85894 30.8571 6.85894H28.5714V30.8572C28.5714 31.1603 28.451 31.451 28.2367 31.6653C28.0224 31.8796 27.7317 32 27.4286 32H4.57143C4.26832 32 3.97763 31.8796 3.76331 31.6653C3.54898 31.451 3.42857 31.1603 3.42857 30.8572V6.85894ZM19.4286 4.57339V2.28784H12.5714V4.57339H19.4286ZM5.71429 29.7145H26.2857V6.85894H5.71429V29.7145ZM12.5714 25.1433C12.2683 25.1433 11.9776 25.0229 11.7633 24.8086C11.549 24.5943 11.4286 24.3037 11.4286 24.0006V12.5728C11.4286 12.2697 11.549 11.9791 11.7633 11.7648C11.9776 11.5504 12.2683 11.43 12.5714 11.43C12.8745 11.43 13.1652 11.5504 13.3796 11.7648C13.5939 11.9791 13.7143 12.2697 13.7143 12.5728V24.0006C13.7143 24.3037 13.5939 24.5943 13.3796 24.8086C13.1652 25.0229 12.8745 25.1433 12.5714 25.1433ZM19.4286 25.1433C19.1255 25.1433 18.8348 25.0229 18.6204 24.8086C18.4061 24.5943 18.2857 24.3037 18.2857 24.0006V12.5728C18.2857 12.2697 18.4061 11.9791 18.6204 11.7648C18.8348 11.5504 19.1255 11.43 19.4286 11.43C19.7317 11.43 20.0224 11.5504 20.2367 11.7648C20.451 11.9791 20.5714 12.2697 20.5714 12.5728V24.0006C20.5714 24.3037 20.451 24.5943 20.2367 24.8086C20.0224 25.0229 19.7317 25.1433 19.4286 25.1433Z" fill="#6F6C6C"/>
</svg>
