<svg width="30" height="30" viewBox="0 0 30 30" fill="none" xmlns="http://www.w3.org/2000/svg">
<path d="M15 8.38042C14.2826 8.38042 13.6957 7.79346 13.6957 7.07607V1.46737C13.6957 0.749981 14.2826 0.163025 15 0.163025C15.7174 0.163025 16.3044 0.749981 16.3044 1.46737V7.07607C16.3044 7.79346 15.7174 8.38042 15 8.38042ZM11.1196 9.65215C11.7065 9.22824 11.837 8.41302 11.413 7.82607L8.08696 3.29346C7.66305 2.7065 6.84783 2.57607 6.26087 2.99998C5.67392 3.42389 5.54348 4.23911 5.96739 4.82607L9.26087 9.35868C9.52174 9.71737 9.91305 9.88042 10.3044 9.88042C10.5978 9.91302 10.8913 9.8152 11.1196 9.65215ZM8.70652 12.9456C8.93479 12.2609 8.54348 11.5109 7.8587 11.3152L2.51087 9.58694C1.82609 9.35868 1.07609 9.74998 0.880438 10.4348C0.652177 11.0869 1.04348 11.8369 1.72826 12.0652L7.07609 13.7935C7.20652 13.8261 7.33696 13.8587 7.46739 13.8587C8.02174 13.8587 8.51087 13.5 8.70652 12.9456ZM2.51087 20.413L7.8587 18.6848C8.54348 18.4565 8.93479 17.7391 8.70652 17.0543C8.47826 16.3695 7.76087 16.0109 7.07609 16.2065L1.72826 17.9348C1.04348 18.163 0.652177 18.8804 0.880438 19.5652C1.04348 20.1195 1.56522 20.4782 2.11957 20.4782C2.25 20.4782 2.38044 20.4782 2.51087 20.413ZM8.08696 26.7065L11.413 22.1739C11.837 21.5869 11.7065 20.7717 11.1196 20.3478C10.5326 19.9239 9.71739 20.0543 9.29348 20.6413L6 25.1739C5.57609 25.7608 5.70652 26.5761 6.29348 27C6.52174 27.163 6.78261 27.2608 7.04348 27.2608C7.43479 27.2608 7.82609 27.0652 8.08696 26.7065ZM16.3044 28.5326V22.9239C16.3044 22.2065 15.7174 21.6195 15 21.6195C14.2826 21.6195 13.6957 22.2065 13.6957 22.9239V28.5326C13.6957 29.25 14.2826 29.8369 15 29.8369C15.7174 29.8369 16.3044 29.25 16.3044 28.5326ZM23.7391 27C24.3261 26.5761 24.4565 25.7608 24.0326 25.1739L20.7065 20.6413C20.2826 20.0543 19.4674 19.9239 18.8804 20.3478C18.2935 20.7717 18.163 21.5869 18.587 22.1739L21.8804 26.7065C22.1413 27.0652 22.5326 27.2282 22.9239 27.2282C23.2174 27.2608 23.5109 27.163 23.7391 27ZM29.1196 19.5978C29.3478 18.913 28.9565 18.163 28.2717 17.9674L22.9239 16.2391C22.2391 16.0108 21.4891 16.4022 21.2935 17.0869C21.0652 17.7717 21.4565 18.5217 22.1413 18.7174L27.4891 20.4456C27.6196 20.4782 27.75 20.5109 27.8804 20.5109C28.4348 20.4782 28.9565 20.1195 29.1196 19.5978ZM22.9239 13.7935L28.2717 12.0652C28.9565 11.8369 29.3478 11.1195 29.1196 10.4348C28.8913 9.74998 28.1739 9.39129 27.4891 9.58694L22.1413 11.3152C21.4565 11.5435 21.0652 12.2609 21.2935 12.9456C21.4565 13.5 21.9783 13.8587 22.5326 13.8587C22.663 13.8587 22.7935 13.8261 22.9239 13.7935ZM20.7065 9.35868L24 4.82607C24.4239 4.23911 24.2935 3.42389 23.7065 2.99998C23.1196 2.57607 22.3044 2.7065 21.8804 3.29346L18.587 7.82607C18.163 8.41302 18.2935 9.22824 18.8804 9.65215C19.1087 9.8152 19.3696 9.91302 19.6304 9.91302C20.0544 9.91302 20.4457 9.71737 20.7065 9.35868Z" fill="black"/>
</svg>
