<svg width="91" height="31" viewBox="0 0 91 31" fill="none" xmlns="http://www.w3.org/2000/svg">
<path d="M6.432 8.64C6.73067 6.336 7.424 4.56533 8.512 3.328C9.62133 2.06933 11.072 1.44 12.864 1.44C14.656 1.44 15.552 2.05867 15.552 3.296C15.552 4.128 15.3493 4.896 14.944 5.6C14.56 6.28267 14.0373 6.85867 13.376 7.328C12.0747 8.20267 10.5493 8.832 8.8 9.216C8.37333 12.8853 7.744 15.5093 6.912 17.088C8.87467 17.7493 10.1973 18.176 10.88 18.368C11.5627 18.5387 12.2773 18.624 13.024 18.624C13.792 18.624 14.3147 18.3147 14.592 17.696C14.8693 17.0773 15.072 16.768 15.2 16.768C15.456 16.768 15.584 16.928 15.584 17.248C15.584 18.2507 15.2107 19.104 14.464 19.808C13.7173 20.512 12.9067 20.864 12.032 20.864C11.136 20.864 10.3253 20.7147 9.6 20.416C8.87467 20.1173 8.416 19.9253 8.224 19.84C8.032 19.7547 7.63733 19.5733 7.04 19.296C6.464 19.0187 6.05867 18.8267 5.824 18.72C5.01333 19.5733 3.92533 20 2.56 20C2.00533 20 1.51467 19.7973 1.088 19.392C0.661333 18.9867 0.448 18.5067 0.448 17.952C0.448 16.736 1.14133 16.128 2.528 16.128C3.12533 16.128 3.95733 16.2667 5.024 16.544C5.42933 15.264 5.856 12.9387 6.304 9.568C6.06933 9.58933 5.74933 9.6 5.344 9.6C4.96 9.6 4.768 9.536 4.768 9.408C4.768 9.00267 5.32267 8.74667 6.432 8.64ZM8.896 8.288C10.2613 7.98933 11.3813 7.488 12.256 6.784C13.152 6.05867 13.6 5.12 13.6 3.968C13.6 2.816 13.2053 2.24 12.416 2.24C10.688 2.24 9.51467 4.256 8.896 8.288ZM4.288 18.048C3.05067 17.5147 2.28267 17.248 1.984 17.248C1.70667 17.248 1.568 17.3973 1.568 17.696C1.568 17.9947 1.696 18.2507 1.952 18.464C2.22933 18.6773 2.58133 18.784 3.008 18.784C3.43467 18.784 3.86133 18.5387 4.288 18.048ZM16.6215 4.352C16.6215 3.968 16.8242 3.63733 17.2295 3.36C17.6348 3.08267 17.9975 2.944 18.3175 2.944C18.8935 2.944 19.1815 3.27467 19.1815 3.936C19.1815 4.59733 19.0108 5.17333 18.6695 5.664C18.3282 6.13333 17.8482 6.368 17.2295 6.368C16.8242 6.368 16.6215 5.696 16.6215 4.352ZM17.5495 20.16C16.7175 20.16 16.0882 19.9893 15.6615 19.648C15.5122 19.4987 15.4375 18.9653 15.4375 18.048C15.4375 17.1307 15.5015 15.6053 15.6295 13.472C15.7788 11.3173 15.9068 10.1547 16.0135 9.984C16.1202 9.81333 16.4508 9.49333 17.0055 9.024C17.5602 8.55467 17.9868 8.32 18.2855 8.32C18.6055 8.32 18.7655 8.72533 18.7655 9.536C18.7655 9.74933 18.7015 10.1653 18.5735 10.784C18.4668 11.4027 18.3388 11.8507 18.1895 12.128C17.9122 12.832 17.7735 14.6773 17.7735 17.664C17.7735 18.24 17.8375 18.528 17.9655 18.528C18.3282 18.5067 18.8295 18.0587 19.4695 17.184C20.1095 16.288 20.7388 15.1467 21.3575 13.76C21.9975 12.3733 22.3815 11.68 22.5095 11.68C22.6588 11.68 22.7335 11.7653 22.7335 11.936C22.7335 12.5333 22.4242 13.4827 21.8055 14.784C20.1202 18.368 18.7015 20.16 17.5495 20.16ZM25.7993 13.248C26.9513 12.9707 27.9113 12.6187 28.6793 12.192C29.4686 11.7653 29.8846 11.552 29.9273 11.552C30.0553 11.552 30.1193 11.6587 30.1193 11.872C30.1193 12.0853 29.9059 12.352 29.4792 12.672C28.5833 13.3333 27.4633 13.8987 26.1193 14.368C26.6739 16.48 26.9513 18.72 26.9513 21.088C26.9513 23.072 26.7273 24.9707 26.2793 26.784C26.0233 27.808 25.6179 28.64 25.0633 29.28C24.5299 29.92 23.8686 30.24 23.0793 30.24C22.3966 30.24 21.9273 29.9413 21.6713 29.344C21.3513 28.64 21.1699 27.968 21.1273 27.328C21.0633 26.3253 21.0312 24.6933 21.0312 22.432C21.0312 20.1707 21.2019 17.44 21.5433 14.24C20.7752 13.6853 20.3912 13.0133 20.3912 12.224C20.3912 11.4133 20.5619 10.7947 20.9032 10.368C21.2446 9.92 21.6713 9.632 22.1833 9.504C22.4819 7.648 22.7699 6.048 23.0473 4.704C23.3459 3.36 23.7939 2.272 24.3913 1.44C24.9886 0.586666 25.5859 0.16 26.1833 0.16C26.8659 0.16 27.2073 0.917333 27.2073 2.432C27.2073 4.82133 26.3219 7.50933 24.5513 10.496C24.9993 11.136 25.4153 12.0533 25.7993 13.248ZM23.5593 14.848C23.3673 17.472 23.2713 20.48 23.2713 23.872C23.2713 27.2853 23.4526 28.992 23.8153 28.992C24.4553 28.992 24.9886 28.1493 25.4153 26.464C25.8419 24.8 26.0553 22.9227 26.0553 20.832C26.0553 18.7627 25.8206 16.6827 25.3513 14.592C24.7113 14.7627 24.1139 14.848 23.5593 14.848ZM24.0393 10.048C24.6579 9.024 25.2233 7.81867 25.7352 6.432C26.2473 5.024 26.5033 3.85067 26.5033 2.912C26.5033 1.97333 26.4073 1.504 26.2153 1.504C25.8739 1.504 25.5006 2.28267 25.0953 3.84C24.7113 5.39733 24.3593 7.46667 24.0393 10.048ZM24.0393 11.328L23.8473 11.648L23.6873 13.28C23.9646 13.3653 24.2099 13.408 24.4233 13.408C24.6579 13.408 24.8499 13.3973 24.9993 13.376C24.7219 12.544 24.4019 11.8613 24.0393 11.328ZM22.0553 10.304C21.7353 10.4107 21.5753 10.656 21.5753 11.04C21.5753 11.424 21.6606 11.7547 21.8313 12.032C21.9166 11.264 21.9913 10.688 22.0553 10.304ZM32.1853 20.16C30.9906 20.16 30.0412 19.712 29.3372 18.816C28.6332 17.8987 28.2812 16.864 28.2812 15.712C28.2812 13.3867 28.7719 11.6267 29.7533 10.432C30.7346 9.23733 32.0039 8.64 33.5613 8.64C34.2866 8.64 34.8839 8.84267 35.3533 9.248C35.8226 9.632 36.0573 10.1653 36.0573 10.848C36.0573 12.128 35.5133 13.2053 34.4253 14.08C33.3586 14.9333 32.0466 15.3813 30.4893 15.424C30.5746 16.256 30.8519 16.9813 31.3213 17.6C31.8119 18.1973 32.3773 18.496 33.0173 18.496C33.6573 18.496 34.2333 18.3467 34.7453 18.048C35.2573 17.7493 35.7266 17.3227 36.1533 16.768C37.0493 15.5947 37.8173 14.2613 38.4573 12.768C38.6279 12.384 38.7559 12.1067 38.8413 11.936C38.9479 11.7653 39.0546 11.68 39.1613 11.68C39.2893 11.68 39.3533 11.7653 39.3533 11.936C39.3533 13.0027 38.7026 14.6027 37.4013 16.736C35.9933 19.0187 34.2546 20.16 32.1853 20.16ZM30.4893 14.656C31.7479 14.4427 32.6653 14.0373 33.2413 13.44C33.8386 12.8427 34.1373 12.064 34.1373 11.104C34.1373 10.144 33.8279 9.664 33.2093 9.664C32.4626 9.664 31.8333 10.1867 31.3213 11.232C30.8093 12.256 30.5319 13.3973 30.4893 14.656ZM52.1913 19.168C53.3433 19.168 54.3566 18.7627 55.2313 17.952C56.1273 17.1413 56.5753 16.2133 56.5753 15.168C56.5753 14.1013 56.2446 13.12 55.5833 12.224C54.8579 12.5867 54.1433 12.768 53.4392 12.768C51.7966 12.768 50.9753 12.256 50.9753 11.232C50.9753 10.9333 51.1779 10.6667 51.5833 10.432C51.9886 10.176 52.5646 10.048 53.3113 10.048C54.0793 10.048 54.9113 10.272 55.8073 10.72C56.6606 9.80267 57.0873 8.768 57.0873 7.616C57.0873 6.18667 56.4579 5.056 55.1993 4.224C53.9619 3.37067 52.6286 2.944 51.1993 2.944C50.9006 2.944 50.6766 2.95467 50.5273 2.976C50.5059 3.59467 50.4526 4.58667 50.3673 5.952C50.2393 8 50.1753 11.1253 50.1753 15.328C50.1753 16.9493 50.0579 17.76 49.8233 17.76C48.9059 17.76 48.3193 17.632 48.0633 17.376C47.8073 17.12 47.6793 16.384 47.6793 15.168C47.6793 14.8693 47.7326 13.6427 47.8393 11.488C47.9673 9.33333 48.0312 7.59467 48.0312 6.272C48.0312 4.94933 48.0739 3.97867 48.1593 3.36C47.0286 3.744 46.4206 4.36267 46.3353 5.216C46.2499 5.92 46.0899 6.41067 45.8553 6.688C45.6419 6.96533 45.3433 7.104 44.9593 7.104C44.5966 7.104 44.3513 7.008 44.2233 6.816C44.0953 6.60267 44.0312 6.38933 44.0312 6.176C44.0312 4.32 45.4713 3.04 48.3513 2.336C48.7139 0.885333 49.2899 0.16 50.0793 0.16C50.3993 0.16 50.5593 0.757333 50.5593 1.952C51.1139 1.888 51.7966 1.856 52.6073 1.856C53.4393 1.856 54.3886 2.016 55.4553 2.336C56.5219 2.63467 57.4499 3.17867 58.2393 3.968C59.0286 4.736 59.4233 5.6 59.4233 6.56C59.4233 8.352 58.5593 9.96267 56.8313 11.392C58.0259 12.3307 58.6233 13.4507 58.6233 14.752C58.6233 16.0533 58.2179 17.1307 57.4073 17.984C55.8926 19.5413 53.8659 20.32 51.3273 20.32C49.5993 20.32 48.3619 20.2027 47.6153 19.968C47.4659 19.9253 47.3059 19.8187 47.1353 19.648C46.9859 19.456 46.9113 19.2213 46.9113 18.944C46.9113 18.496 47.3486 18.272 48.2233 18.272C48.5006 18.272 49.1086 18.4213 50.0473 18.72C50.9859 19.0187 51.7006 19.168 52.1913 19.168ZM54.9113 11.52C54.2713 10.9867 53.6633 10.72 53.0873 10.72C52.5326 10.72 52.2552 10.8373 52.2552 11.072C52.2552 11.5627 52.7779 11.808 53.8233 11.808C54.2073 11.808 54.5699 11.712 54.9113 11.52ZM62.5548 20.16C62.0854 20.16 61.6481 20.1067 61.2428 20C60.8588 19.872 60.6241 19.7547 60.5388 19.648C60.3254 19.392 60.2188 18.0693 60.2188 15.68C60.2188 13.2693 60.4854 10.0053 61.0188 5.888C61.4668 2.496 62.5121 0.799999 64.1548 0.799999C64.5388 0.799999 64.8161 1.01333 64.9868 1.44C65.1574 1.84533 65.2428 2.24 65.2428 2.624C65.2428 5.39733 64.4001 8.50133 62.7148 11.936C62.6508 13.7067 62.6188 15.2533 62.6188 16.576C62.6188 17.8773 62.7361 18.528 62.9708 18.528C63.3334 18.5067 63.8348 18.0587 64.4748 17.184C65.1148 16.288 65.7441 15.1467 66.3628 13.76C67.0028 12.3733 67.3868 11.68 67.5148 11.68C67.6641 11.68 67.7388 11.7653 67.7388 11.936C67.7388 12.5333 67.4294 13.4827 66.8108 14.784C65.1254 18.368 63.7068 20.16 62.5548 20.16ZM64.4427 2.912C64.4427 2.22933 64.3574 1.888 64.1868 1.888C63.5468 1.888 63.0774 4.544 62.7788 9.856C63.8881 6.93333 64.4427 4.61867 64.4427 2.912ZM75.8285 13.056C76.6818 12.7787 77.2685 12.544 77.5885 12.352C77.9298 12.1387 78.1858 11.9787 78.3565 11.872L78.7405 11.648C78.8472 11.584 78.9325 11.552 78.9965 11.552C79.1672 11.552 79.2525 11.648 79.2525 11.84C79.2525 12.032 78.9218 12.3733 78.2605 12.864C77.5992 13.3333 76.7778 13.76 75.7965 14.144C75.6472 15.936 75.0818 17.3867 74.1005 18.496C73.1192 19.6053 71.7218 20.16 69.9085 20.16C68.5858 20.16 67.5725 19.6373 66.8685 18.592C66.1645 17.5253 65.8125 16.288 65.8125 14.88C65.8125 13.4507 66.2285 12.1067 67.0605 10.848C67.9138 9.58933 69.0018 8.96 70.3245 8.96C70.9218 8.53333 71.6258 8.32 72.4365 8.32C73.2685 8.32 74.0365 8.75733 74.7405 9.632C75.4445 10.5067 75.8072 11.648 75.8285 13.056ZM73.7485 14.688L72.5965 14.752C71.6152 14.752 70.7832 14.464 70.1005 13.888C69.4178 13.2907 69.0765 12.64 69.0765 11.936C69.0765 11.232 69.1938 10.624 69.4285 10.112C68.5112 10.8373 68.0525 12.2667 68.0525 14.4C68.0525 15.424 68.2658 16.4053 68.6925 17.344C69.1192 18.2613 69.7912 18.72 70.7085 18.72C71.6258 18.72 72.3405 18.336 72.8525 17.568C73.3645 16.7787 73.6632 15.8187 73.7485 14.688ZM71.7645 9.376C71.4232 9.376 71.1565 9.536 70.9645 9.856C70.7725 10.1547 70.6765 10.4853 70.6765 10.848C70.6765 11.6373 70.9432 12.2773 71.4765 12.768C72.0312 13.2587 72.6712 13.504 73.3965 13.504H73.7805C73.7378 12.4587 73.5565 11.5093 73.2365 10.656C72.9378 9.80267 72.4472 9.376 71.7645 9.376ZM84.7968 15.104C84.1354 16.8533 83.5168 18.1333 82.9408 18.944C82.3861 19.7547 81.6501 20.16 80.7328 20.16C79.8154 20.16 79.0368 19.7653 78.3968 18.976C77.7781 18.1867 77.4688 16.928 77.4688 15.2C77.4688 13.472 77.9488 11.9467 78.9088 10.624C79.8901 9.30133 81.1701 8.64 82.7488 8.64C83.0688 8.64 83.4528 8.77867 83.9008 9.056C84.3488 9.312 84.7434 9.632 85.0848 10.016C85.1488 9.80267 85.4581 9.472 86.0128 9.024C86.5674 8.55467 86.9941 8.32 87.2928 8.32C87.6128 8.32 87.7728 8.77867 87.7728 9.696C87.7728 10.6133 87.5808 11.424 87.1968 12.128C86.9834 13.5573 86.8661 14.88 86.8448 16.096C88.9354 13.4507 90.0448 12.0533 90.1728 11.904C90.3221 11.7547 90.4501 11.68 90.5568 11.68C90.7701 11.68 90.8768 11.7867 90.8768 12C90.8768 12.128 90.8341 12.2667 90.7488 12.416C90.0661 13.4187 88.7221 15.1787 86.7168 17.696C86.5888 20.2347 86.5034 21.9627 86.4608 22.88C86.3541 25.5893 85.9701 27.488 85.3088 28.576C84.6688 29.6853 83.5168 30.24 81.8528 30.24C81.1274 30.24 80.4448 30.016 79.8048 29.568C79.1861 29.1413 78.8768 28.384 78.8768 27.296C78.8768 26.2293 79.2821 25.1307 80.0928 24C80.9248 22.8693 82.4288 21.1307 84.6048 18.784L84.7968 15.104ZM82.5568 9.792C81.9594 9.792 81.3194 10.2613 80.6368 11.2C79.9754 12.1173 79.6448 13.184 79.6448 14.4C79.6448 15.5947 79.8154 16.576 80.1568 17.344C80.5194 18.0907 80.9674 18.464 81.5008 18.464C82.0341 18.464 82.5461 18.0267 83.0368 17.152C83.5274 16.2773 84.1568 14.7733 84.9248 12.64C84.9674 11.9147 84.9888 11.456 84.9888 11.264C84.8181 10.944 84.4661 10.624 83.9328 10.304C83.3994 9.96267 82.9408 9.792 82.5568 9.792ZM84.5088 20.288C82.0768 22.912 80.8608 25.0133 80.8608 26.592C80.8608 27.3173 80.9888 27.9147 81.2448 28.384C81.5008 28.8533 81.8528 29.088 82.3008 29.088C82.9834 29.088 83.4634 28.7147 83.7408 27.968C84.0181 27.2213 84.2208 25.7067 84.3488 23.424L84.5088 20.288Z" fill="black"/>
</svg>
