<svg width="108" height="37" viewBox="0 0 108 37" fill="none" xmlns="http://www.w3.org/2000/svg">
<path d="M7.638 10.51C7.99267 7.774 8.816 5.67133 10.108 4.202C11.4253 2.70733 13.148 1.96 15.276 1.96C17.404 1.96 18.468 2.69467 18.468 4.164C18.468 5.152 18.2273 6.064 17.746 6.9C17.29 7.71067 16.6693 8.39467 15.884 8.952C14.3387 9.99067 12.5273 10.738 10.45 11.194C9.94333 15.5513 9.196 18.6673 8.208 20.542C10.5387 21.3273 12.1093 21.834 12.92 22.062C13.7307 22.2647 14.5793 22.366 15.466 22.366C16.378 22.366 16.9987 21.9987 17.328 21.264C17.6573 20.5293 17.898 20.162 18.05 20.162C18.354 20.162 18.506 20.352 18.506 20.732C18.506 21.9227 18.0627 22.936 17.176 23.772C16.2893 24.608 15.3267 25.026 14.288 25.026C13.224 25.026 12.2613 24.8487 11.4 24.494C10.5387 24.1393 9.994 23.9113 9.766 23.81C9.538 23.7087 9.06933 23.4933 8.36 23.164C7.676 22.8347 7.19467 22.6067 6.916 22.48C5.95333 23.4933 4.66133 24 3.04 24C2.38133 24 1.79867 23.7593 1.292 23.278C0.785333 22.7967 0.532 22.2267 0.532 21.568C0.532 20.124 1.35533 19.402 3.002 19.402C3.71133 19.402 4.69933 19.5667 5.966 19.896C6.44733 18.376 6.954 15.6147 7.486 11.612C7.20733 11.6373 6.82733 11.65 6.346 11.65C5.89 11.65 5.662 11.574 5.662 11.422C5.662 10.9407 6.32067 10.6367 7.638 10.51ZM10.564 10.092C12.1853 9.73733 13.5153 9.142 14.554 8.306C15.618 7.44467 16.15 6.33 16.15 4.962C16.15 3.594 15.6813 2.91 14.744 2.91C12.692 2.91 11.2987 5.304 10.564 10.092ZM5.092 21.682C3.62267 21.0487 2.71067 20.732 2.356 20.732C2.02667 20.732 1.862 20.9093 1.862 21.264C1.862 21.6187 2.014 21.9227 2.318 22.176C2.64733 22.4293 3.06533 22.556 3.572 22.556C4.07867 22.556 4.58533 22.2647 5.092 21.682ZM19.738 5.418C19.738 4.962 19.9787 4.56933 20.46 4.24C20.9414 3.91066 21.372 3.746 21.752 3.746C22.436 3.746 22.778 4.13866 22.778 4.924C22.778 5.70933 22.5754 6.39333 22.17 6.976C21.7647 7.53333 21.1947 7.812 20.46 7.812C19.9787 7.812 19.738 7.014 19.738 5.418ZM20.84 24.19C19.852 24.19 19.1047 23.9873 18.598 23.582C18.4207 23.4047 18.332 22.7713 18.332 21.682C18.332 20.5927 18.408 18.7813 18.56 16.248C18.7374 13.6893 18.8894 12.3087 19.016 12.106C19.1427 11.9033 19.5354 11.5233 20.194 10.966C20.8527 10.4087 21.3594 10.13 21.714 10.13C22.094 10.13 22.284 10.6113 22.284 11.574C22.284 11.8273 22.208 12.3213 22.056 13.056C21.9294 13.7907 21.7774 14.3227 21.6 14.652C21.2707 15.488 21.106 17.6793 21.106 21.226C21.106 21.91 21.182 22.252 21.334 22.252C21.7647 22.2267 22.36 21.6947 23.12 20.656C23.88 19.592 24.6274 18.2367 25.362 16.59C26.122 14.9433 26.578 14.12 26.73 14.12C26.9074 14.12 26.996 14.2213 26.996 14.424C26.996 15.1333 26.6287 16.2607 25.894 17.806C23.8927 22.062 22.208 24.19 20.84 24.19ZM30.6366 15.982C32.0046 15.6527 33.1446 15.2347 34.0566 14.728C34.9939 14.2213 35.4879 13.968 35.5386 13.968C35.6906 13.968 35.7666 14.0947 35.7666 14.348C35.7666 14.6013 35.5133 14.918 35.0066 15.298C33.9426 16.0833 32.6126 16.7547 31.0166 17.312C31.6753 19.82 32.0046 22.48 32.0046 25.292C32.0046 27.648 31.7386 29.9027 31.2066 32.056C30.9026 33.272 30.4213 34.26 29.7626 35.02C29.1293 35.78 28.3439 36.16 27.4066 36.16C26.5959 36.16 26.0386 35.8053 25.7346 35.096C25.3546 34.26 25.1393 33.462 25.0886 32.702C25.0126 31.5113 24.9746 29.5733 24.9746 26.888C24.9746 24.2027 25.1773 20.96 25.5826 17.16C24.6706 16.5013 24.2146 15.7033 24.2146 14.766C24.2146 13.8033 24.4173 13.0687 24.8226 12.562C25.2279 12.03 25.7346 11.688 26.3426 11.536C26.6973 9.332 27.0393 7.432 27.3686 5.836C27.7233 4.24 28.2553 2.948 28.9646 1.96C29.6739 0.946666 30.3833 0.44 31.0926 0.44C31.9033 0.44 32.3086 1.33933 32.3086 3.138C32.3086 5.97533 31.2573 9.16733 29.1546 12.714C29.6866 13.474 30.1806 14.5633 30.6366 15.982ZM27.9766 17.882C27.7486 20.998 27.6346 24.57 27.6346 28.598C27.6346 32.6513 27.8499 34.678 28.2806 34.678C29.0406 34.678 29.6739 33.6773 30.1806 31.676C30.6873 29.7 30.9406 27.4707 30.9406 24.988C30.9406 22.5307 30.6619 20.0607 30.1046 17.578C29.3446 17.7807 28.6353 17.882 27.9766 17.882ZM28.5466 12.182C29.2813 10.966 29.9526 9.53467 30.5606 7.888C31.1686 6.216 31.4726 4.82267 31.4726 3.708C31.4726 2.59333 31.3586 2.036 31.1306 2.036C30.7253 2.036 30.2819 2.96067 29.8006 4.81C29.3446 6.65933 28.9266 9.11667 28.5466 12.182ZM28.5466 13.702L28.3186 14.082L28.1286 16.02C28.4579 16.1213 28.7493 16.172 29.0026 16.172C29.2813 16.172 29.5093 16.1593 29.6866 16.134C29.3573 15.146 28.9773 14.3353 28.5466 13.702ZM26.1906 12.486C25.8106 12.6127 25.6206 12.904 25.6206 13.36C25.6206 13.816 25.7219 14.2087 25.9246 14.538C26.0259 13.626 26.1146 12.942 26.1906 12.486ZM38.22 24.19C36.8013 24.19 35.674 23.658 34.838 22.594C34.002 21.5047 33.584 20.276 33.584 18.908C33.584 16.1467 34.1667 14.0567 35.332 12.638C36.4973 11.2193 38.0047 10.51 39.854 10.51C40.7153 10.51 41.4247 10.7507 41.982 11.232C42.5393 11.688 42.818 12.3213 42.818 13.132C42.818 14.652 42.172 15.9313 40.88 16.97C39.6133 17.9833 38.0553 18.5153 36.206 18.566C36.3073 19.554 36.6367 20.4153 37.194 21.15C37.7767 21.8593 38.448 22.214 39.208 22.214C39.968 22.214 40.652 22.0367 41.26 21.682C41.868 21.3273 42.4253 20.8207 42.932 20.162C43.996 18.7687 44.908 17.1853 45.668 15.412C45.8707 14.956 46.0227 14.6267 46.124 14.424C46.2507 14.2213 46.3773 14.12 46.504 14.12C46.656 14.12 46.732 14.2213 46.732 14.424C46.732 15.6907 45.9593 17.5907 44.414 20.124C42.742 22.8347 40.6773 24.19 38.22 24.19ZM36.206 17.654C37.7007 17.4007 38.79 16.9193 39.474 16.21C40.1833 15.5007 40.538 14.576 40.538 13.436C40.538 12.296 40.1707 11.726 39.436 11.726C38.5493 11.726 37.802 12.3467 37.194 13.588C36.586 14.804 36.2567 16.1593 36.206 17.654ZM61.9771 23.012C63.3451 23.012 64.5484 22.5307 65.5871 21.568C66.6511 20.6053 67.1831 19.5033 67.1831 18.262C67.1831 16.9953 66.7904 15.83 66.0051 14.766C65.1438 15.1967 64.2951 15.412 63.4591 15.412C61.5084 15.412 60.5331 14.804 60.5331 13.588C60.5331 13.2333 60.7738 12.9167 61.2551 12.638C61.7364 12.334 62.4204 12.182 63.3071 12.182C64.2191 12.182 65.2071 12.448 66.2711 12.98C67.2844 11.8907 67.7911 10.662 67.7911 9.294C67.7911 7.59667 67.0438 6.254 65.5491 5.266C64.0798 4.25266 62.4964 3.746 60.7991 3.746C60.4444 3.746 60.1784 3.75867 60.0011 3.784C59.9758 4.51867 59.9124 5.69667 59.8111 7.318C59.6591 9.75 59.5831 13.4613 59.5831 18.452C59.5831 20.3773 59.4438 21.34 59.1651 21.34C58.0758 21.34 57.3791 21.188 57.0751 20.884C56.7711 20.58 56.6191 19.706 56.6191 18.262C56.6191 17.9073 56.6824 16.4507 56.8091 13.892C56.9611 11.3333 57.0371 9.26867 57.0371 7.698C57.0371 6.12733 57.0878 4.97467 57.1891 4.24C55.8464 4.696 55.1244 5.43067 55.0231 6.444C54.9218 7.28 54.7318 7.86267 54.4531 8.192C54.1998 8.52133 53.8451 8.686 53.3891 8.686C52.9584 8.686 52.6671 8.572 52.5151 8.344C52.3631 8.09067 52.2871 7.83733 52.2871 7.584C52.2871 5.38 53.9971 3.86 57.4171 3.024C57.8478 1.30133 58.5318 0.44 59.4691 0.44C59.8491 0.44 60.0391 1.14933 60.0391 2.568C60.6978 2.492 61.5084 2.454 62.4711 2.454C63.4591 2.454 64.5864 2.644 65.8531 3.024C67.1198 3.37866 68.2218 4.02466 69.1591 4.962C70.0964 5.874 70.5651 6.9 70.5651 8.04C70.5651 10.168 69.5391 12.0807 67.4871 13.778C68.9058 14.8927 69.6151 16.2227 69.6151 17.768C69.6151 19.3133 69.1338 20.5927 68.1711 21.606C66.3724 23.4553 63.9658 24.38 60.9511 24.38C58.8991 24.38 57.4298 24.2407 56.5431 23.962C56.3658 23.9113 56.1758 23.7847 55.9731 23.582C55.7958 23.354 55.7071 23.0753 55.7071 22.746C55.7071 22.214 56.2264 21.948 57.2651 21.948C57.5944 21.948 58.3164 22.1253 59.4311 22.48C60.5458 22.8347 61.3944 23.012 61.9771 23.012ZM65.2071 13.93C64.4471 13.2967 63.7251 12.98 63.0411 12.98C62.3824 12.98 62.0531 13.1193 62.0531 13.398C62.0531 13.9807 62.6738 14.272 63.9151 14.272C64.3711 14.272 64.8018 14.158 65.2071 13.93ZM74.2838 24.19C73.7264 24.19 73.2071 24.1267 72.7258 24C72.2698 23.848 71.9911 23.7087 71.8898 23.582C71.6364 23.278 71.5098 21.7073 71.5098 18.87C71.5098 16.0073 71.8264 12.1313 72.4598 7.242C72.9918 3.214 74.2331 1.2 76.1838 1.2C76.6398 1.2 76.9691 1.45333 77.1718 1.96C77.3744 2.44133 77.4758 2.91 77.4758 3.366C77.4758 6.65933 76.4751 10.3453 74.4738 14.424C74.3978 16.5267 74.3598 18.3633 74.3598 19.934C74.3598 21.4793 74.4991 22.252 74.7778 22.252C75.2084 22.2267 75.8038 21.6947 76.5638 20.656C77.3238 19.592 78.0711 18.2367 78.8058 16.59C79.5658 14.9433 80.0218 14.12 80.1738 14.12C80.3511 14.12 80.4398 14.2213 80.4398 14.424C80.4398 15.1333 80.0724 16.2607 79.3378 17.806C77.3364 22.062 75.6518 24.19 74.2838 24.19ZM76.5258 3.708C76.5258 2.89733 76.4244 2.492 76.2218 2.492C75.4618 2.492 74.9044 5.646 74.5498 11.954C75.8671 8.48333 76.5258 5.73467 76.5258 3.708ZM90.0463 15.754C91.0597 15.4247 91.7563 15.146 92.1363 14.918C92.5417 14.6647 92.8457 14.4747 93.0483 14.348L93.5043 14.082C93.631 14.006 93.7323 13.968 93.8083 13.968C94.011 13.968 94.1123 14.082 94.1123 14.31C94.1123 14.538 93.7197 14.9433 92.9343 15.526C92.149 16.0833 91.1737 16.59 90.0083 17.046C89.831 19.174 89.1597 20.8967 87.9943 22.214C86.829 23.5313 85.1697 24.19 83.0163 24.19C81.4457 24.19 80.2423 23.5693 79.4063 22.328C78.5703 21.0613 78.1523 19.592 78.1523 17.92C78.1523 16.2227 78.6463 14.6267 79.6343 13.132C80.6477 11.6373 81.9397 10.89 83.5103 10.89C84.2197 10.3833 85.0557 10.13 86.0183 10.13C87.0063 10.13 87.9183 10.6493 88.7543 11.688C89.5903 12.7267 90.021 14.082 90.0463 15.754ZM87.5763 17.692L86.2083 17.768C85.043 17.768 84.055 17.426 83.2443 16.742C82.4337 16.0327 82.0283 15.26 82.0283 14.424C82.0283 13.588 82.1677 12.866 82.4463 12.258C81.357 13.1193 80.8123 14.8167 80.8123 17.35C80.8123 18.566 81.0657 19.7313 81.5723 20.846C82.079 21.9353 82.877 22.48 83.9663 22.48C85.0557 22.48 85.9043 22.024 86.5123 21.112C87.1203 20.1747 87.475 19.0347 87.5763 17.692ZM85.2203 11.384C84.815 11.384 84.4983 11.574 84.2703 11.954C84.0423 12.3087 83.9283 12.7013 83.9283 13.132C83.9283 14.0693 84.245 14.8293 84.8783 15.412C85.537 15.9947 86.297 16.286 87.1583 16.286H87.6143C87.5637 15.0447 87.3483 13.9173 86.9683 12.904C86.6137 11.8907 86.031 11.384 85.2203 11.384ZM100.696 18.186C99.9108 20.2633 99.1761 21.7833 98.4921 22.746C97.8335 23.7087 96.9595 24.19 95.8701 24.19C94.7808 24.19 93.8561 23.7213 93.0961 22.784C92.3615 21.8467 91.9941 20.352 91.9941 18.3C91.9941 16.248 92.5641 14.4367 93.7041 12.866C94.8695 11.2953 96.3895 10.51 98.2641 10.51C98.6441 10.51 99.1001 10.6747 99.6321 11.004C100.164 11.308 100.633 11.688 101.038 12.144C101.114 11.8907 101.481 11.498 102.14 10.966C102.799 10.4087 103.305 10.13 103.66 10.13C104.04 10.13 104.23 10.6747 104.23 11.764C104.23 12.8533 104.002 13.816 103.546 14.652C103.293 16.3493 103.153 17.92 103.128 19.364C105.611 16.2227 106.928 14.5633 107.08 14.386C107.257 14.2087 107.409 14.12 107.536 14.12C107.789 14.12 107.916 14.2467 107.916 14.5C107.916 14.652 107.865 14.8167 107.764 14.994C106.953 16.1847 105.357 18.2747 102.976 21.264C102.824 24.2787 102.723 26.3307 102.672 27.42C102.545 30.6373 102.089 32.892 101.304 34.184C100.544 35.5013 99.1761 36.16 97.2001 36.16C96.3388 36.16 95.5281 35.894 94.7681 35.362C94.0335 34.8553 93.6661 33.956 93.6661 32.664C93.6661 31.3973 94.1475 30.0927 95.1101 28.75C96.0981 27.4073 97.8841 25.3427 100.468 22.556L100.696 18.186ZM98.0361 11.878C97.3268 11.878 96.5668 12.4353 95.7561 13.55C94.9708 14.6393 94.5781 15.906 94.5781 17.35C94.5781 18.7687 94.7808 19.934 95.1861 20.846C95.6168 21.7327 96.1488 22.176 96.7821 22.176C97.4155 22.176 98.0235 21.6567 98.6061 20.618C99.1888 19.5793 99.9361 17.7933 100.848 15.26C100.899 14.3987 100.924 13.854 100.924 13.626C100.721 13.246 100.303 12.866 99.6701 12.486C99.0368 12.0807 98.4921 11.878 98.0361 11.878ZM100.354 24.342C97.4661 27.458 96.0221 29.9533 96.0221 31.828C96.0221 32.6893 96.1741 33.3987 96.4781 33.956C96.7821 34.5133 97.2001 34.792 97.7321 34.792C98.5428 34.792 99.1128 34.3487 99.4421 33.462C99.7715 32.5753 100.012 30.7767 100.164 28.066L100.354 24.342Z" fill="black"/>
</svg>
