<svg width="85" height="97" viewBox="0 0 85 97" fill="none" xmlns="http://www.w3.org/2000/svg">
<path fill-rule="evenodd" clip-rule="evenodd" d="M85 36.1775C85 16.193 70.7466 0 53.1728 0C35.5831 0 21.335 16.193 21.335 36.1775C21.335 56.1499 35.5885 72.3429 53.1728 72.3429C70.7466 72.3429 85 56.1499 85 36.1775ZM26.2119 36.5725C26.2119 19.5227 38.3191 5.72983 53.2631 5.72983C68.1966 5.72983 80.2931 19.5288 80.2931 36.5725C80.2931 53.6101 68.1966 67.409 53.2631 67.409C38.3191 67.409 26.2119 53.604 26.2119 36.5725Z" fill="#868585"/>
<path fill-rule="evenodd" clip-rule="evenodd" d="M9.67938 97L0 85.9293L21.4466 61.3937C21.4466 61.3937 21.9566 66.0419 24.5278 68.9707C27.0884 71.9115 31.1259 72.4705 31.1259 72.4705L9.67938 97Z" fill="#868585"/>
</svg>
