<svg width="180" height="301" viewBox="0 0 180 301" fill="none" xmlns="http://www.w3.org/2000/svg">
<g clip-path="url(#clip0_69_12)">
<path d="M82.7025 0.0637571C52.233 2.00053 28.6565 13.8198 13.8657 34.578C1.55176 51.9096 -3.00465 74.3065 1.99571 92.8797C6.20163 108.448 16.5061 118.927 30.0118 121.335C33.2597 121.906 36.9515 122.13 39.3583 121.882L41.2276 121.708L41.7416 117.611C42.022 115.351 42.3258 111.378 42.4192 108.796C42.5594 104.724 42.5361 103.879 42.1622 102.588C41.4612 99.9563 40.0125 97.1505 36.788 92.0603C33.3999 86.6969 32.4419 84.8594 31.3437 81.6067C26.7405 68.0245 27.0676 55.2616 32.2316 44.6591C34.0775 40.86 36.087 38.0542 39.148 34.9504C45.3634 28.6435 53.5883 24.6706 64.1732 22.858C67.3042 22.3366 76.0665 22.1131 79.1976 22.4856C86.5813 23.3795 93.0304 25.788 98.6149 29.736C101.302 31.648 106.139 36.7134 107.891 39.4447C112.027 45.9254 113.943 53.4987 112.705 58.5641L112.354 60.0539L113.172 61.3203C113.639 62.0403 118.102 68.0493 118.102 68.0493C125.556 77.9814 137.309 79.4712 135.931 81.6067C135.253 82.6744 122.004 85.2567 120.556 85.4554C118.99 85.6788 118.032 86.2003 117.845 86.97C117.635 87.8887 118.359 90.3966 119.434 92.3334C120.299 93.8977 120.345 94.0715 120.088 94.8909C119.925 95.4372 119.458 96.0331 118.78 96.5545C118.219 96.9767 117.752 97.4981 117.752 97.6719C117.752 97.8706 118.172 98.5658 118.686 99.2114C119.201 99.857 119.621 100.602 119.621 100.875C119.621 101.148 119.154 101.968 118.57 102.688C116.49 105.27 116.42 105.94 117.658 110.013C118.757 113.613 118.92 115.674 118.243 117.213C117.518 118.778 115.275 120.913 113.686 121.559C111.817 122.304 109.13 122.577 103.919 122.577H99.2925L98.6383 123.719C98.2878 124.365 96.9092 126.723 95.5773 129.008C90.9975 136.78 89.1983 140.082 86.9085 145.048C78.7537 162.628 74.7113 181.152 74.4543 201.786L74.4075 206.876L84.4784 206.95L94.5492 207L94.7128 206.081C94.7829 205.56 94.853 204.641 94.853 204.02C94.853 202.009 95.5539 196.273 96.2549 192.598C98.0074 183.237 101.185 175.341 105.812 168.736C112.004 159.922 118.546 154.111 136.702 141.373C148.338 133.229 152.217 130.249 157.591 125.407C168.55 115.5 175.139 104.947 178.153 92.4079C179.579 86.4983 179.976 82.8482 179.999 75.5232C180.023 67.4534 179.415 62.2886 177.686 55.9072C174.789 45.1309 169.695 36.0181 161.914 27.6999C154.554 19.8039 146.609 14.1922 135.931 9.32548C126.094 4.85601 115.018 1.97569 102.096 0.510702C98.8486 0.163077 86.0205 -0.134886 82.7025 0.0637571Z" fill="black"/>
<path d="M79.1601 229.281C73.8824 230.01 68.4906 231.586 64.0973 233.75C60.5598 235.467 58.3632 236.878 55.3392 239.395C49.5765 244.194 45.5541 250.262 43.5571 257.272C42.8724 259.624 42.8154 260.306 42.7869 264.917C42.7869 268.939 42.901 270.374 43.3004 271.974C47.0661 286.51 60.246 297.331 78.019 300.459C80.5295 300.906 81.8988 301 86.4348 301C90.9708 301 92.3401 300.906 94.8506 300.459C103.78 298.883 110.798 295.778 117.102 290.556C123.464 285.334 127.487 279.124 129.284 271.809C130.083 268.61 129.997 260.942 129.141 257.696C125.29 243.065 112.994 232.644 96.0487 229.61C92.4257 228.975 82.8688 228.787 79.1601 229.281Z" fill="black"/>
</g>
<defs>
<clipPath id="clip0_69_12">
<rect width="180" height="301" fill="white"/>
</clipPath>
</defs>
</svg>
