<svg width="180" height="332" viewBox="0 0 180 332" fill="none" xmlns="http://www.w3.org/2000/svg">
<path d="M82.7025 0.0703592C52.233 2.2066 28.6565 15.2431 13.8657 38.1392C1.55174 57.2558 -3.00467 81.9594 1.9957 102.445C6.20161 119.617 16.5061 131.175 30.0118 133.832C33.2597 134.462 36.9515 134.708 39.3582 134.434L41.2275 134.242L41.7416 129.723C42.022 127.231 42.3257 122.849 42.4192 120.001C42.5594 115.509 42.536 114.578 42.1622 113.154C41.4612 110.251 40.0125 107.156 36.788 101.542C33.3999 95.6258 32.4418 93.5992 31.3436 90.0114C26.7405 75.0303 27.0676 60.9531 32.2316 49.2586C34.0775 45.0683 36.087 41.9735 39.1479 38.55C45.3634 31.5935 53.5883 27.2115 64.1731 25.2122C67.3042 24.6371 76.0665 24.3906 79.1976 24.8014C86.5813 25.7874 93.0304 28.4439 98.6149 32.7986C101.302 34.9074 106.139 40.4945 107.891 43.5072C112.027 50.6553 113.943 59.0086 112.705 64.5956L112.354 66.2389L113.172 67.6357C113.639 68.4299 118.102 75.0577 118.102 75.0577C125.556 86.0128 137.309 87.656 135.931 90.0114C135.253 91.189 122.004 94.0374 120.556 94.2565C118.99 94.503 118.032 95.0781 117.845 95.9271C117.635 96.9404 118.359 99.7066 119.434 101.843C120.299 103.568 120.345 103.76 120.088 104.664C119.925 105.266 119.458 105.924 118.78 106.499C118.219 106.964 117.752 107.539 117.752 107.731C117.752 107.95 118.172 108.717 118.686 109.429C119.201 110.141 119.621 110.963 119.621 111.264C119.621 111.565 119.154 112.469 118.57 113.263C116.49 116.112 116.42 116.851 117.658 121.343C118.757 125.314 118.92 127.587 118.243 129.285C117.518 131.011 115.275 133.366 113.686 134.078C111.817 134.9 109.13 135.201 103.919 135.201H99.2925L98.6383 136.461C98.2878 137.173 96.9092 139.775 95.5773 142.294C90.9975 150.867 89.1983 154.509 86.9084 159.987C78.7536 179.377 74.7113 199.808 74.4543 222.568L74.4075 228.182L84.4784 228.264L94.5492 228.319L94.7128 227.306C94.7829 226.73 94.8529 225.717 94.8529 225.032C94.8529 222.814 95.5539 216.488 96.2549 212.434C98.0074 202.109 101.185 193.4 105.812 186.115C112.004 176.392 118.546 169.983 136.702 155.933C148.338 146.95 152.217 143.664 157.591 138.323C168.55 127.396 175.139 115.756 178.153 101.925C179.579 95.4067 179.976 91.3808 179.999 83.3014C180.023 74.4004 179.415 68.7038 177.686 61.6652C174.789 49.7789 169.695 39.7277 161.914 30.5528C154.554 21.8435 146.609 15.6539 135.931 10.2859C126.094 5.35617 115.018 2.17921 102.096 0.563335C98.8486 0.179908 86.0205 -0.148742 82.7025 0.0703592Z" fill="#868585"/>
<path d="M79.1601 252.894C73.8824 253.699 68.4906 255.437 64.0973 257.824C60.5598 259.718 58.3632 261.274 55.3392 264.051C49.5765 269.343 45.5541 276.037 43.5571 283.769C42.8724 286.363 42.8154 287.115 42.7869 292.201C42.7869 296.637 42.901 298.22 43.3004 299.984C47.0661 316.018 60.246 327.953 78.019 331.403C80.5295 331.896 81.8988 332 86.4348 332C90.9708 332 92.3401 331.896 94.8506 331.403C103.78 329.665 110.798 326.24 117.102 320.481C123.464 314.721 127.487 307.871 129.284 299.803C130.083 296.274 129.997 287.816 129.141 284.236C125.29 268.098 112.994 256.604 96.0487 253.258C92.4257 252.557 82.8688 252.349 79.1601 252.894Z" fill="#868585"/>
</svg>
