<svg width="32" height="32" viewBox="0 0 32 32" fill="none" xmlns="http://www.w3.org/2000/svg">
<path fill-rule="evenodd" clip-rule="evenodd" d="M30.5376 9.31802C30.5067 9.38898 30.4636 9.454 30.4103 9.51013L10.9868 28.9329C10.9152 29.069 10.7982 29.1758 10.6562 29.2349L1.01481 31.9355C0.993463 31.9431 0.971598 31.9492 0.949385 31.9536L0.916672 31.9634C0.911104 31.9634 0.90484 31.9634 0.899967 31.9634C0.835355 31.9829 0.768377 31.9934 0.700903 31.9947C0.634395 31.9954 0.568185 31.9857 0.504622 31.9662C0.490005 31.962 0.476781 31.9662 0.462164 31.9599C0.447548 31.9536 0.453116 31.9529 0.447548 31.9508C0.387303 31.9266 0.331004 31.8935 0.2805 31.8527C0.252722 31.8349 0.22642 31.8149 0.201849 31.7928C0.179819 31.7683 0.159802 31.742 0.14199 31.7142C0.101269 31.6636 0.0682023 31.6073 0.04385 31.5471C0.0405839 31.5424 0.0375638 31.5376 0.0348016 31.5325C0.0299294 31.5186 0.0348015 31.5047 0.0285373 31.4901C0.00962761 31.4266 1.53141e-05 31.3607 0 31.2945C0.00156318 31.2268 0.0120955 31.1596 0.0313214 31.0947C0.0313214 31.0892 0.0313214 31.0836 0.0313214 31.0787L0.0410658 31.0446C0.0487221 31.0237 0.0501142 31.0008 0.0591626 30.9799L2.75976 21.3385C2.81913 21.1966 2.9259 21.0798 3.06184 21.0079L22.1908 1.88372C22.2187 1.8524 22.2514 1.82595 22.2799 1.79532L22.4887 1.58652C22.4992 1.57607 22.5124 1.57259 22.5235 1.56285C23.5647 0.559012 24.955 -0.00131743 26.4012 2.32607e-06C27.8475 0.00132209 29.2367 0.564187 30.2761 1.56992C31.3154 2.57566 31.9235 3.94568 31.9723 5.39112C32.0211 6.83656 31.5068 8.24448 30.5376 9.31802ZM27.9073 10.0899L25.3884 7.57098L8.93425 24.0258C8.93425 24.0314 8.94399 24.0335 8.94678 24.0391L10.5985 27.3988L27.9073 10.0899ZM1.74286 30.256L3.68131 29.7138L2.28507 28.3183L1.74286 30.256ZM2.70617 26.8155L5.18195 29.2927L9.44165 28.099C9.44165 28.099 7.64241 24.3585 7.63963 24.3585L3.89916 22.5558L2.70617 26.8155ZM7.95911 23.0528C7.96468 23.0528 7.96676 23.0618 7.97233 23.0653L24.4272 6.60977L21.9083 4.09083L4.59937 21.3997L7.95911 23.0528ZM26.3566 1.38954C25.7678 1.39053 25.1858 1.5145 24.6478 1.7535C24.1097 1.99249 23.6275 2.34125 23.2321 2.77742L23.2272 2.77255L22.8695 3.12961L28.8686 9.1287L29.2354 8.7612L29.2312 8.75702C29.8625 8.17946 30.3043 7.42438 30.4984 6.59105C30.6926 5.75773 30.6301 4.88515 30.319 4.08803C30.008 3.29091 29.4631 2.60655 28.7559 2.12492C28.0486 1.64329 27.2122 1.38693 26.3566 1.38954Z" fill="#6C6B6B"/>
</svg>
