<svg width="151" height="91" viewBox="0 0 151 91" fill="none" xmlns="http://www.w3.org/2000/svg">
<path d="M75.5 0C29.6363 0 0 22.233 0 56.6412C0 71.0586 5.1491 80.5454 15.7417 85.6434C24.9804 90.09 37.6366 91 53.7938 91C57.1485 91 60.6064 90.9628 64.1498 90.9297C71.5462 90.8531 79.4512 90.8531 86.8502 90.9297C90.391 90.9628 93.8491 91 97.2037 91C126.636 91 151 88.4148 151 56.6412C151 22.233 121.366 0 75.5 0ZM97.2037 86.8636C93.8692 86.8636 90.4339 86.8264 86.9106 86.7933C83.1909 86.7541 79.3831 86.7167 75.5 86.7167C71.6169 86.7167 67.8066 86.7561 64.087 86.7933C60.5661 86.8264 57.1283 86.8636 53.7938 86.8636C38.4547 86.8636 26.5458 86.0468 18.2861 82.0737C9.24372 77.7223 5.03333 69.6398 5.03333 56.6412C5.03333 17.929 41.4344 4.13636 75.5 4.13636C109.566 4.13636 145.967 17.929 145.967 56.6412C145.967 84.6942 125.755 86.8636 97.2037 86.8636Z" fill="#414040"/>
<path d="M43.0076 19.303C33.053 19.303 25 32.2592 25 48.2544C25 64.2539 33.053 77.2121 43.0076 77.2121C52.9497 77.2121 61 64.2517 61 48.2544C60.9976 32.2592 52.9497 19.303 43.0076 19.303Z" fill="#414040"/>
<path d="M108.008 19.303C98.053 19.303 90 32.2592 90 48.2544C90 64.2539 98.053 77.2121 108.008 77.2121C117.95 77.2121 126 64.2517 126 48.2544C125.998 32.2592 117.947 19.303 108.008 19.303Z" fill="#414040"/>
</svg>
