<svg width="550" height="290" viewBox="0 0 550 290" fill="none" xmlns="http://www.w3.org/2000/svg">
<g clip-path="url(#clip0_57_8)">
<path d="M275 1.07806C107.947 1.07806 0 71.6672 0 180.912C0 226.687 18.755 256.807 57.3375 272.993C90.9883 287.111 137.087 290 195.938 290C208.157 290 220.752 289.882 233.658 289.777C260.599 289.534 289.392 289.534 316.342 289.777C329.239 289.882 341.835 290 354.053 290C461.258 290 550 281.792 550 180.912C550 71.6672 442.063 1.07806 275 1.07806ZM354.053 276.867C341.908 276.867 329.395 276.749 316.562 276.644C303.013 276.519 289.144 276.401 275 276.401C260.856 276.401 246.978 276.526 233.43 276.644C220.605 276.749 208.083 276.867 195.938 276.867C140.067 276.867 96.69 274.274 66.605 261.659C33.6692 247.844 18.3333 222.182 18.3333 180.912C18.3333 58.0021 150.92 14.2109 275 14.2109C399.08 14.2109 531.667 58.0021 531.667 180.912C531.667 269.979 458.05 276.867 354.053 276.867Z" fill="black"/>
<path d="M156.301 61.2073C120.312 61.2073 91.1989 102.228 91.1989 152.87C91.1989 203.526 120.312 244.552 156.301 244.552C192.243 244.552 221.347 203.519 221.347 152.87C221.338 102.228 192.243 61.2073 156.301 61.2073Z" fill="black"/>
<path d="M393.58 61.2073C357.592 61.2073 328.478 102.228 328.478 152.87C328.478 203.526 357.592 244.552 393.58 244.552C429.523 244.552 458.627 203.519 458.627 152.87C458.618 102.228 429.513 61.2073 393.58 61.2073Z" fill="black"/>
</g>
<defs>
<clipPath id="clip0_57_8">
<rect width="550" height="290" fill="white"/>
</clipPath>
</defs>
</svg>
