<svg width="100" height="100" viewBox="0 0 100 100" fill="none" xmlns="http://www.w3.org/2000/svg">
<rect width="100" height="100" fill="white"/>
<path d="M94.9806 38.9074C96.0826 37.7904 97.0351 36.5175 97.8111 35.1243C102.494 26.6894 98.5611 4.70658 96.1667 3.2052C94.2361 1.9905 80.8083 6.30845 73.2611 12.4617C66.3222 8.0374 58.4194 5.42476 50 5.42476C41.6083 5.42476 33.7333 8.02262 26.8083 12.4204C19.25 6.29072 5.88611 1.99345 3.95556 3.2052C1.56389 4.70658 -2.36667 26.6924 2.31111 35.1243C3.08333 36.5164 4.01944 37.737 5.05833 38.8157C1.85 46.3581 0 54.6039 0 62.9945C0 92.5167 22.2528 100 50 100C77.7472 100 100 92.5167 100 62.9945C100 54.6364 98.1667 46.4261 94.9806 38.9074Z" fill="#7A6E70"/>
<path d="M20.55 16.5695C14.5333 13.05 8.32222 10.7917 7.21667 11.4445C5.63333 12.3806 4.20833 25.3278 6.23889 34.4028C9.74562 27.5462 14.6155 21.4778 20.55 16.5695ZM93.7583 34.4C95.7944 25.325 94.3667 12.3778 92.7833 11.4417C91.6778 10.7889 85.4639 13.0473 79.4472 16.5667C85.3829 21.4739 90.2529 27.5425 93.7583 34.4ZM77.7778 64.2361C77.7778 76.7 69.175 90.2778 50 90.2778C30.8222 90.2778 22.2222 76.7 22.2222 64.2361C22.2222 51.7722 30.8222 48.6111 50 48.6111C69.175 48.6111 77.7778 51.7722 77.7778 64.2361Z" fill="#E9B0B9"/>
<path d="M41.6667 68.3333C41.6667 73.4917 40.7222 75 37.5 75C34.2778 75 33.3333 73.4917 33.3333 68.3333C33.3333 63.1778 34.2778 61.6694 37.5 61.6694C40.7222 61.6694 41.6667 63.175 41.6667 68.3333ZM66.6667 68.3333C66.6667 73.4917 65.7222 75 62.5 75C59.2778 75 58.3333 73.4917 58.3333 68.3333C58.3333 63.1778 59.2778 61.6694 62.5 61.6694C65.7222 61.6694 66.6667 63.175 66.6667 68.3333Z" fill="#662113"/>
<path d="M19.4444 52.7778C22.5127 52.7778 25 50.2905 25 47.2222C25 44.154 22.5127 41.6667 19.4444 41.6667C16.3762 41.6667 13.8889 44.154 13.8889 47.2222C13.8889 50.2905 16.3762 52.7778 19.4444 52.7778Z" fill="#292F33"/>
<path d="M80.5556 52.7778C83.6238 52.7778 86.1111 50.2905 86.1111 47.2222C86.1111 44.154 83.6238 41.6667 80.5556 41.6667C77.4873 41.6667 75 44.154 75 47.2222C75 50.2905 77.4873 52.7778 80.5556 52.7778Z" fill="#292F33"/>
</svg>
