<svg width="40" height="40" viewBox="0 0 40 40" fill="none" xmlns="http://www.w3.org/2000/svg">
<path fill-rule="evenodd" clip-rule="evenodd" d="M20.2373 23.5318C24.8427 23.5506 29.4187 24.1671 33.8347 25.3647C35.928 25.9318 37.3333 27.5953 37.3333 29.5059V32.7365C34.1867 34.7153 28.1493 37.6471 20 37.6471C16.3893 37.6471 9.41332 37 2.66666 32.7365V29.5059C2.66666 27.5953 4.07733 25.9294 6.17867 25.3623C10.7493 24.1247 15.4773 23.5459 20.2373 23.5318ZM20.1867 2.35294C24.5387 2.35294 28.2453 5.05881 29.128 8.75529C28.3733 9.14117 27.592 9.41175 26.24 9.41175C24.5013 9.41175 23.712 8.97175 22.7093 8.41646C21.568 7.78117 20.2773 7.05881 17.7866 7.05881C15.2773 7.05881 13.9786 7.78352 12.832 8.42117C12.1627 8.79294 11.5867 9.11294 10.7573 9.28471C11.3893 5.37177 15.2107 2.35294 19.8133 2.35294H20.1867ZM34.616 23.1153C32.1067 22.4353 29.544 21.9482 26.9547 21.6235C29.9973 19.7365 32 16.6282 32 13.1059H29.3333C29.3333 17.5576 25.2293 21.1765 20.1867 21.1765H19.8133C14.7707 21.1765 10.6667 17.5576 10.6667 13.1059V11.6894C12.3227 11.4871 13.3387 10.9223 14.256 10.4094C15.2587 9.85177 16.0507 9.41177 17.7867 9.41177C19.504 9.41177 20.2907 9.84942 21.2853 10.4047C22.432 11.0424 23.7307 11.7647 26.24 11.7647C28.7493 11.7647 30.0533 11.0353 31.3013 10.3365L32.008 9.94117L31.912 9.20471C31.2107 3.95761 26.168 0 20.1867 0H19.8133C13.2987 0 7.99999 4.67765 7.99999 10.5882V13.1059C7.99999 16.6353 10.008 19.7459 13.056 21.6329C10.4693 21.9506 7.90665 22.4329 5.39467 23.1129C2.168 23.9859 0 26.5576 0 29.5059V33.9223L0.533328 34.2753C8.06133 39.2565 15.96 40 20 40C29.408 40 36.2347 36.4118 39.4666 34.2753L40 33.9224V29.5059C40 26.5553 37.8347 23.9883 34.616 23.1153Z" fill="black"/>
</svg>
