<svg width="24" height="24" viewBox="0 0 24 24" fill="none" xmlns="http://www.w3.org/2000/svg">
<g clip-path="url(#clip0_59_18)">
<path d="M24 0H0V24H24V0Z" fill="#F0F0F0"/>
<path d="M12 11C14.7614 11 17 8.98528 17 6.5C17 4.01472 14.7614 2 12 2C9.23858 2 7 4.01472 7 6.5C7 8.98528 9.23858 11 12 11Z" stroke="#979494" stroke-width="3"/>
<path d="M22 22C22 19.6131 20.9464 17.3239 19.0711 15.636C17.1957 13.9482 14.6522 13 12 13C9.34784 13 6.8043 13.9482 4.92893 15.636C3.05357 17.3239 2 19.6131 2 22H22Z" stroke="#979494" stroke-width="3"/>
</g>
<defs>
<clipPath id="clip0_59_18">
<rect width="24" height="24" fill="white"/>
</clipPath>
</defs>
</svg>
